<svg width="17" height="20" viewBox="0 0 17 20" fill="none" xmlns="http://www.w3.org/2000/svg">
<path d="M15.4001 15.401L14.3453 8.65M1.00012 15.401L2.486 5.89066C2.92586 3.07541 5.3507 1 8.20012 1" stroke="#AAAAAA" stroke-width="2" stroke-linecap="round" stroke-linejoin="round"/>
<path d="M15.4001 15.4002C15.4001 13.909 12.1766 12.7002 8.20012 12.7002C4.22367 12.7002 1.00012 13.909 1.00012 15.4002C1.00012 16.8914 4.22367 18.1002 8.20012 18.1002C12.1766 18.1002 15.4001 16.8914 15.4001 15.4002Z" stroke="#AAAAAA" stroke-width="2" stroke-linecap="round" stroke-linejoin="round"/>
<path d="M9.10017 15.3999H7.30017" stroke="#AAAAAA" stroke-width="2" stroke-linecap="round" stroke-linejoin="round"/>
<path d="M11.3501 1.4501L14.9501 5.0501L11.3501 1.4501ZM16.3001 3.2501C16.3001 1.5104 14.8898 0.100098 13.1501 0.100098C11.4104 0.100098 10.0001 1.5104 10.0001 3.2501C10.0001 4.9898 11.4104 6.4001 13.1501 6.4001C14.8898 6.4001 16.3001 4.9898 16.3001 3.2501Z" fill="#ED5735"/>
</svg>
