<svg width="20" height="20" viewBox="0 0 20 20" fill="none" xmlns="http://www.w3.org/2000/svg">
<path d="M18.1045 5.62022L17.6603 4.84928C17.3243 4.26624 17.1564 3.97472 16.8705 3.85846C16.5847 3.74222 16.2614 3.83395 15.6149 4.0174L14.5168 4.32673C14.104 4.42192 13.6709 4.36792 13.2941 4.17428L12.9909 3.99935C12.6677 3.79236 12.4191 3.48717 12.2815 3.12844L11.981 2.2308C11.7834 1.63678 11.6845 1.33977 11.4493 1.16988C11.2141 1 10.9016 1 10.2767 1H9.27336C8.64849 1 8.33601 1 8.10075 1.16988C7.86553 1.33977 7.76672 1.63678 7.56911 2.2308L7.26854 3.12844C7.13095 3.48717 6.88237 3.79236 6.5592 3.99935L6.25601 4.17428C5.87913 4.36792 5.4461 4.42192 5.03335 4.32673L3.93514 4.0174C3.28863 3.83395 2.96539 3.74222 2.67957 3.85846C2.39375 3.97472 2.22577 4.26624 1.8898 4.84928L1.44558 5.62022C1.13066 6.16675 0.973194 6.44002 1.00376 6.73092C1.03431 7.02181 1.24511 7.25624 1.6667 7.72508L2.59463 8.7625C2.82144 9.0496 2.98245 9.55 2.98245 9.99991C2.98245 10.45 2.82149 10.9502 2.59466 11.2374L1.6667 12.2748C1.24511 12.7437 1.03432 12.9781 1.00376 13.2691C0.973194 13.5599 1.13066 13.8332 1.44558 14.3797L1.88979 15.1506C2.22575 15.7336 2.39375 16.0252 2.67957 16.1414C2.96539 16.2577 3.28864 16.166 3.93516 15.9825L5.03331 15.6731C5.44613 15.5779 5.87925 15.632 6.25617 15.8257L6.55932 16.0007C6.88243 16.2077 7.13094 16.5128 7.26852 16.8715L7.56911 17.7693C7.76672 18.3633 7.86553 18.6603 8.10075 18.8302C8.33601 19 8.64849 19 9.27336 19H10.2767C10.9016 19 11.2141 19 11.4493 18.8302C11.6845 18.6603 11.7834 18.3633 11.981 17.7693L12.2816 16.8715C12.4191 16.5128 12.6676 16.2077 12.9908 16.0007L13.2939 15.8257C13.6709 15.632 14.1039 15.5779 14.5168 15.6731L15.6149 15.9825C16.2614 16.166 16.5847 16.2577 16.8705 16.1414C17.1564 16.0252 17.3243 15.7336 17.6603 15.1506L18.1045 14.3797C18.4194 13.8332 18.5768 13.5599 18.5463 13.2691C18.5157 12.9781 18.305 12.7437 17.8834 12.2748L16.9554 11.2374C16.7286 10.9502 16.5676 10.45 16.5676 9.99991C16.5676 9.55 16.7287 9.0496 16.9554 8.7625L17.8834 7.72508C18.305 7.25624 18.5157 7.02181 18.5463 6.73092C18.5768 6.44002 18.4194 6.16675 18.1045 5.62022Z" stroke="currentColor" stroke-width="2" stroke-linecap="round"/>
<path d="M12.8863 9.99278C12.8863 11.7325 11.476 13.1428 9.73632 13.1428C7.99662 13.1428 6.58635 11.7325 6.58635 9.99278C6.58635 8.25307 7.99662 6.84277 9.73632 6.84277C11.476 6.84277 12.8863 8.25307 12.8863 9.99278Z" stroke="currentColor" stroke-width="2" stroke-linecap="round"/>
</svg>
