<svg width="19" height="20" viewBox="0 0 19 20" fill="none" xmlns="http://www.w3.org/2000/svg">
<path d="M12.7 1V4.6M5.5 1V4.6" stroke="currentColor" stroke-width="2" stroke-linecap="round" stroke-linejoin="round"/>
<path d="M10 2.7998H8.2C4.80588 2.7998 3.10883 2.7998 2.05441 3.85422C1 4.90864 1 6.60569 1 9.9998V11.7998C1 15.1939 1 16.891 2.05441 17.9454C3.10883 18.9998 4.80588 18.9998 8.2 18.9998H10C13.3941 18.9998 15.0912 18.9998 16.1456 17.9454C17.2 16.891 17.2 15.1939 17.2 11.7998V9.9998C17.2 6.60569 17.2 4.90864 16.1456 3.85422C15.0912 2.7998 13.3941 2.7998 10 2.7998Z" stroke="currentColor" stroke-width="2" stroke-linecap="round" stroke-linejoin="round"/>
<path d="M1 8.2002H17.2" stroke="currentColor" stroke-width="2" stroke-linecap="round" stroke-linejoin="round"/>
<path d="M7.29999 15.8503L7.29999 11.6628C7.29999 11.4902 7.17692 11.3503 7.02512 11.3503H6.39999M10.9 15.8486L12.2369 11.7032C12.2456 11.6764 12.25 11.6484 12.25 11.6203C12.25 11.4712 12.1291 11.3503 11.98 11.3503L9.99999 11.3501" stroke="currentColor" stroke-width="2" stroke-linecap="round" stroke-linejoin="round"/>
</svg>
