<svg width="20" height="20" viewBox="0 0 20 20" fill="none" xmlns="http://www.w3.org/2000/svg">
<path d="M8.5002 6.75V4.75C8.5002 3.10626 8.5002 2.28439 8.0462 1.73121C7.96311 1.62995 7.87025 1.53709 7.76899 1.45398C7.21581 1 6.39394 1 4.7502 1C3.10646 1 2.28459 1 1.73141 1.45398C1.63015 1.53709 1.53729 1.62995 1.45418 1.73121C1.0002 2.28439 1.0002 3.10626 1.0002 4.75V6.75C1.0002 8.3937 1.0002 9.2156 1.45418 9.7688C1.53729 9.8701 1.63015 9.9629 1.73141 10.046C2.28459 10.5 3.10646 10.5 4.7502 10.5C6.39394 10.5 7.21581 10.5 7.76899 10.046C7.87025 9.9629 7.96311 9.8701 8.0462 9.7688C8.5002 9.2156 8.5002 8.3937 8.5002 6.75Z" stroke="currentColor" stroke-width="2" stroke-linejoin="round"/>
<path d="M5.7502 13.5H3.7502C3.05242 13.5 2.70353 13.5 2.41963 13.5861C1.78043 13.78 1.28022 14.2802 1.08632 14.9194C1.0002 15.2033 1.0002 15.5522 1.0002 16.25C1.0002 16.9478 1.0002 17.2967 1.08632 17.5806C1.28022 18.2198 1.78043 18.72 2.41963 18.9139C2.70353 19 3.05242 19 3.7502 19H5.7502C6.44798 19 6.79687 19 7.08077 18.9139C7.71997 18.72 8.2202 18.2198 8.4141 17.5806C8.5002 17.2967 8.5002 16.9478 8.5002 16.25C8.5002 15.5522 8.5002 15.2033 8.4141 14.9194C8.2202 14.2802 7.71997 13.78 7.08077 13.5861C6.79687 13.5 6.44798 13.5 5.7502 13.5Z" stroke="currentColor" stroke-width="2" stroke-linejoin="round"/>
<path d="M19.0002 15.25V13.25C19.0002 11.6063 19.0002 10.7844 18.5462 10.2312C18.4631 10.1299 18.3703 10.0371 18.269 9.954C17.7158 9.5 16.8939 9.5 15.2502 9.5C13.6065 9.5 12.7846 9.5 12.2314 9.954C12.1301 10.0371 12.0373 10.1299 11.9542 10.2312C11.5002 10.7844 11.5002 11.6063 11.5002 13.25V15.25C11.5002 16.8937 11.5002 17.7156 11.9542 18.2688C12.0373 18.3701 12.1301 18.4629 12.2314 18.546C12.7846 19 13.6065 19 15.2502 19C16.8939 19 17.7158 19 18.269 18.546C18.3703 18.4629 18.4631 18.3701 18.5462 18.2688C19.0002 17.7156 19.0002 16.8937 19.0002 15.25Z" stroke="currentColor" stroke-width="2" stroke-linejoin="round"/>
<path d="M16.2502 1H14.2502C13.5524 1 13.2035 1 12.9196 1.08612C12.2804 1.28002 11.7802 1.78023 11.5863 2.41943C11.5002 2.70333 11.5002 3.05222 11.5002 3.75C11.5002 4.44778 11.5002 4.79667 11.5863 5.08057C11.7802 5.71977 12.2804 6.21998 12.9196 6.41388C13.2035 6.5 13.5524 6.5 14.2502 6.5H16.2502C16.948 6.5 17.2969 6.5 17.5808 6.41388C18.22 6.21998 18.7202 5.71977 18.9141 5.08057C19.0002 4.79667 19.0002 4.44778 19.0002 3.75C19.0002 3.05222 19.0002 2.70333 18.9141 2.41943C18.7202 1.78023 18.22 1.28002 17.5808 1.08612C17.2969 1 16.948 1 16.2502 1Z" stroke="currentColor" stroke-width="2" stroke-linejoin="round"/>
</svg>
